<svg xmlns="http://www.w3.org/2000/svg" width="36" height="36" viewBox="0 0 36 36" fill="none">
  <path d="M25.5 3H10.5C6.35786 3 3 6.35786 3 10.5V25.5C3 29.6421 6.35786 33 10.5 33H25.5C29.6421 33 33 29.6421 33 25.5V10.5C33 6.35786 29.6421 3 25.5 3Z" stroke="#121212" stroke-width="2" stroke-linecap="round" stroke-linejoin="round"/>
  <path d="M23.9996 17.055C24.1847 18.3033 23.9714 19.5783 23.3902 20.6985C22.8089 21.8187 21.8893 22.7271 20.762 23.2945C19.6347 23.8619 18.3572 24.0594 17.1112 23.8589C15.8652 23.6584 14.7142 23.0701 13.8218 22.1777C12.9294 21.2853 12.3412 20.1343 12.1407 18.8883C11.9402 17.6423 12.1377 16.3648 12.7051 15.2375C13.2724 14.1102 14.1808 13.1906 15.301 12.6093C16.4212 12.0281 17.6962 11.8148 18.9446 12C20.2179 12.1888 21.3968 12.7822 22.3071 13.6924C23.2174 14.6027 23.8107 15.7816 23.9996 17.055Z" stroke="#121212" stroke-width="2" stroke-linecap="round" stroke-linejoin="round"/>
  <path d="M26.25 9.75H26.265" stroke="#121212" stroke-width="2" stroke-linecap="round" stroke-linejoin="round"/>
</svg>